<svg width="137.98666" height="45" xmlns="http://www.w3.org/2000/svg">
 <metadata id="metadata8">image/svg+xml</metadata>

 <g>
  <title>background</title>
  <rect x="-1" y="-1" width="139.98666" height="47" id="canvas_background" fill="none"/>
 </g>
 <g>
  <title>Layer 1</title>
  <g transform="matrix(1.3333333,0,0,-1.3333333,0,256.98667) " id="g10">
   <g stroke="null" transform="translate(-0.37699270248413086,2.842170943040401e-14) scale(0.10000000149011612) " id="g12">
    <path stroke="null" id="path14" d="m1961.550211,784.946662l0,1939.00243l-1933.06497,0l1933.06497,-1939.00243z" fill-rule="evenodd" fill="none"/>
    <path stroke="null" id="path16" d="m274.987533,1809.989072c18.74655,-31.571262 19.419508,-81.273642 -0.669949,-112.172896c-24.775092,-41.643323 -70.309592,-63.806483 -119.19083,-57.090435c-38.169268,5.372034 -76.334925,33.58326 -90.39935,71.193533c-18.74986,42.987337 -5.355383,94.035743 27.45489,124.929968c34.150173,33.590302 91.066291,40.974333 132.585105,20.150157c20.085446,-10.070049 38.836008,-26.870229 50.220134,-47.010327l0,0" fill-rule="evenodd" fill="#231f20"/>
    <path stroke="null" id="path18" d="m273.647634,1799.908964c15.400814,-35.599282 12.055079,-83.285639 -13.393975,-112.84088c-24.775092,-30.223224 -60.935314,-45.670336 -102.451119,-40.970309c-34.14586,4.700027 -66.960045,27.539219 -83.700157,58.43445c-18.08001,35.6023 -13.394476,86.644669 12.054577,117.548954c27.45489,32.906223 69.639743,46.336307 112.495447,38.278256c31.470575,-6.046053 60.935314,-31.568244 74.995226,-60.450471l0,0" fill-rule="evenodd" fill="#ffffff"/>
    <path stroke="null" id="path20" d="m196.642559,1854.313382c-13.393975,0 -30.134688,3.360036 -37.50012,-10.070049c0,-4.034055 0,-8.068111 4.019697,-10.080109c14.060915,0 23.435193,16.116102 40.175907,8.73207c30.134688,-2.686017 59.595415,-26.870229 68.303755,-55.745415c5.355584,-16.796157 8.03137,-37.615303 2.675786,-54.40643c0.669949,12.0911 3.345736,28.211226 -8.704328,34.926268c-4.019697,1.33999 -8.705331,0 -11.385129,-3.360036c-2.009848,-12.759083 13.390966,-18.803125 10.71518,-32.238239c-2.009848,-30.223224 -21.43036,-59.106457 -48.881238,-71.198563c-18.083621,-7.388056 -39.508966,-12.087076 -60.265364,-7.388056c10.04523,-2.011998 23.436196,0 30.800626,9.404077c0.669949,4.032043 -0.669949,8.73207 -4.688643,10.748092c-12.721017,0 -22.766247,-14.108128 -37.496109,-8.73207c-26.785141,2.688029 -52.230283,19.479156 -65.620748,44.330346c-10.048841,20.148145 -13.394476,47.687364 -6.029345,70.522532c-2.009748,-12.088082 -3.349547,-27.535195 6.029345,-36.939272c2.005837,-2.684005 6.021422,-2.684005 9.370968,-2.016022c4.019496,2.688029 5.355484,8.73207 2.679698,12.092106c-8.705031,9.400053 -10.044829,22.835168 -7.365232,35.595258c4.019496,26.871235 26.115092,52.393426 52.229982,61.125496c17.410663,8.058051 41.515806,8.73207 60.935314,4.698015l0,0" fill-rule="evenodd" fill="#231f20"/>
    <path stroke="null" id="path22" d="m165.167972,1809.315053c2.679798,-17.46414 -12.050064,-30.897243 -26.114991,-38.96133c0,-2.684005 2.679798,-4.028019 5.359596,-4.700027c17.40966,-1.344014 12.050064,24.180189 28.12484,22.836174c6.025534,-10.748092 -14.064927,-15.448118 -7.369444,-26.867211c8.705331,4.703045 16.740713,10.075079 24.779104,16.11912c-1.339899,14.783153 3.345736,28.887257 15.400814,36.945308c4.015685,2.011998 10.040216,2.011998 13.389963,-0.674019c4.689646,-3.360036 4.019697,-10.080109 3.349747,-14.778123c-4.015685,-10.745074 -12.724025,-15.4451 -20.759407,-23.505163c1.339899,-12.763107 14.733874,-0.672007 20.759407,-8.060063c2.005837,-4.703045 -3.349747,-6.715042 -6.699495,-7.391074c-7.36443,2.016022 -14.059913,0 -20.085446,-4.700027c-7.365432,-6.044041 -9.375281,-14.104104 -10.71518,-22.163161c0,-12.088082 4.685635,-24.852196 16.740713,-29.55524c8.035382,-0.667983 14.733874,0.672007 20.089458,6.043035c4.685635,4.036067 6.025534,9.408101 6.025534,14.780135c-0.669949,5.376058 -2.009848,11.415069 -8.035382,14.103098c-4.019697,1.348038 -9.374278,0 -11.384126,-4.700027c-4.015685,-6.719066 10.048239,-12.759083 0,-17.463134c-6.025534,0.672007 -8.705331,6.716048 -10.711168,11.420099c0,6.043035 2.005837,11.415069 5.355584,15.447112c5.355584,3.360036 11.384126,6.044041 18.079609,4.032043c9.375281,-1.348038 14.060915,-10.748092 16.073773,-19.479156c0,-8.73207 -1.342908,-16.796157 -6.698492,-23.511199c-6.695483,-7.388056 -15.400814,-9.400053 -25.445042,-10.076085c-8.705331,1.344014 -16.740713,4.032043 -23.435193,11.420099c-7.369444,10.747086 -10.71518,28.21022 -4.019697,40.298302c4.019697,8.064087 10.714177,14.104104 17.40966,18.807149c1.339899,1.344014 0,2.688029 -1.339899,4.028019c-10.714177,-3.356012 -19.419508,-12.759083 -29.460727,-17.45911c-3.349747,-20.82317 -4.689646,-45.67436 -26.114991,-55.074413c-6.695483,-2.020046 -13.394376,-2.692053 -20.089658,0.667983c-6.699194,4.028019 -8.705031,11.419093 -8.035081,19.479156c5.359295,22.163161 28.124739,28.883233 44.195503,38.955294c1.338896,1.344014 1.338896,2.688029 1.338896,4.700027c-4.688643,1.344014 -10.044227,-4.700027 -16.073773,-2.011998c-10.041219,2.011998 -8.03137,15.447112 -18.075899,15.447112c-6.025433,5.372034 -6.699194,14.776111 -4.689446,22.171209c1.339799,2.011998 2.679698,3.349976 4.689446,4.023995c2.005837,-7.384032 -3.349647,-18.807149 6.695182,-20.82317c3.349346,14.777117 9.37488,32.241257 25.445644,36.939272c5.354581,0 11.384126,-1.337978 12.050064,-6.710012l0,0" fill-rule="evenodd" fill="#ffffff"/>
    <path stroke="null" id="path24" d="m156.462641,1805.280998c-0.665938,-10.080109 -8.704328,-18.131117 -16.735699,-23.507175c-0.673961,9.403071 4.685635,19.48318 13.390966,24.855214c1.335887,0.663959 2.678795,0 3.344733,-1.348038l0,0" fill-rule="evenodd" fill="#231f20"/>
    <path stroke="null" id="path26" d="m213.382269,1805.280998c-0.669949,-8.73207 -6.698492,-13.430085 -13.393975,-18.131117c0,8.051009 3.349747,15.4451 10.04523,19.479156c1.338896,0.663959 3.348744,0 3.348744,-1.348038l0,0" fill-rule="evenodd" fill="#231f20"/>
    <path stroke="null" id="path28" d="m151.778009,1744.162543c-1.339899,-15.447112 -6.029545,-30.899255 -20.090461,-39.630319c-5.355083,-0.672007 -10.044528,1.344014 -10.710466,6.047059c0.665938,16.788109 18.075899,26.867211 30.800927,33.58326l0,0" fill-rule="evenodd" fill="#231f20"/>
   </g>
   <text xml:space="preserve" text-anchor="start" font-family="Helvetica, Arial, sans-serif" font-size="24" id="svg_2" y="144.60528" x="36.899917" stroke-width="0" stroke="#000" fill="#000000"/>
  </g>
  <text font-weight="bold" font-style="italic" xml:space="preserve" text-anchor="start" font-family="Oswald, sans-serif" font-size="24" id="svg_3" y="20.619303" x="44.16757" stroke-width="0" stroke="#000" fill="#000000">General</text>
  <text xml:space="preserve" text-anchor="start" font-family="Oswald, sans-serif" font-size="24" id="svg_4" y="96.011707" x="80.649756" stroke-width="0" stroke="#000" fill="#000000"/>
  <text font-style="italic" font-weight="bold" xml:space="preserve" text-anchor="start" font-family="Oswald, sans-serif" font-size="24" id="svg_6" y="41.63691" x="45.337386" fill-opacity="null" stroke-opacity="null" stroke-width="0" stroke="null" fill="#000000">Electric</text>
 </g>
</svg>