<svg width="415.41985999999997" height="282.38748" xmlns="http://www.w3.org/2000/svg">
 <g>
  <title>background</title>
  <rect fill="none" id="canvas_background" height="284.38748" width="417.41986" y="-1" x="-1"/>
 </g>

 <g>
  <title>Layer 1</title>
  <g id="layer1">
   <path fill="none" fill-rule="nonzero" id="path1135" d="m0.00001,6.2069l415.41986,0l0,282.38749l-415.41986,0l0,-282.38749z"/>
   <path fill="#000000" fill-rule="evenodd" id="path1137" d="m362.11479,39.01719zm-154.8945,-15.84705c68.91753,0 129.48289,23.98489 162.86089,59.72647l-21.90297,1.38386c-31.59001,-26.94855 -83.03168,-44.53461 -140.95792,-44.53461c-95.67013,0 -173.71133,48.01264 -173.71133,106.87573c0,58.86309 78.0412,106.88185 173.71133,106.88185c60.33881,0 113.64196,-19.09851 144.79721,-47.95753l21.24166,1.21854c-32.63708,37.70716 -94.88022,63.27797 -166.03887,63.27797c-104.78769,0 -190.26868,-55.4463 -190.26868,-123.43308c0,-67.9929 85.48099,-123.4392 190.26868,-123.4392zm0,31.05728c47.49216,0 90.23879,12.16695 119.44683,31.40018l-258.63511,16.2022c27.24248,-28.34467 79.46793,-47.60238 139.18828,-47.60238zm124.17401,150.11833c-29.22642,21.11307 -74.04883,34.66389 -124.17401,34.66389c-61.41037,0 -114.8911,-20.35991 -141.44164,-50.0272l265.61565,15.36331zm-14.99592,-105.40002c15.00816,33.22492 6.67438,72.92214 -1.18179,91.88594l21.40699,1.24303c4.12096,-7.74595 7.45815,-16.31242 9.4176,-25.07483l26.04231,0.5021c-3.12899,11.3342 -6.72948,18.19839 -11.10763,25.97496l1.83086,0.14083l19.52102,1.21241c9.76051,-14.83058 15.16124,-31.13075 15.16124,-48.22083c0,-18.42495 -6.27636,-35.92528 -17.49421,-51.6315l-63.59639,3.96789zm28.76717,19.17199l23.28071,-0.68581c3.58212,6.45394 6.88869,16.03075 7.22547,27.04041l-26.89957,0c-0.2388,-7.4949 -1.08382,-17.67791 -3.60661,-26.3546zm-87.07916,-15.52251c7.64185,28.16708 6.99278,56.92813 -0.08573,84.88703l45.60619,2.73098c2.06967,-5.51707 3.9189,-11.05252 5.74976,-18.52905l-21.28452,-1.18179c4.69043,-20.61708 2.20438,-52.43365 -5.00884,-69.42575l-24.97686,1.51858zm-59.14477,3.70458c8.58484,22.23363 6.44169,54.08693 0.1837,77.74116l45.76539,2.67588c2.09416,-5.83549 3.35556,-13.29364 4.18833,-17.81875l-20.35991,-0.83276c4.47612,-21.11307 2.4983,-48.28207 -4.88638,-63.32697l-24.89113,1.56144zm-65.5191,4.1026c-12.10572,22.57653 -12.87113,46.01032 -0.83889,69.75028l48.09837,2.82283c1.46958,-5.28439 2.68199,-10.23812 3.61273,-14.99591c0.01837,-0.11022 0.03062,-0.21431 0.03674,-0.33678l-35.04353,-1.49408c-1.85535,-5.96408 -1.85535,-7.92965 -2.22887,-11.25459l38.99917,0.18982c1.09606,-3.17798 1.46346,-14.12028 0,-17.5432l-39.55639,0.11635c0.13471,-2.65751 1.99006,-11.03415 2.41257,-12.19145l35.75383,-2.04518c-0.9736,-4.99047 -2.37583,-10.45244 -4.02299,-15.97564l-47.22274,2.95755zm-76.22259,4.75779c-11.68934,20.47624 -12.41188,40.65858 -1.12056,60.5225l18.14328,1.06545c-0.77153,-1.55532 -5.35175,-10.95455 -6.47231,-20.57422l18.63314,-0.03674c0,0 2.21663,12.83439 6.12941,21.62742l21.0947,1.27977c-11.00354,-21.79276 -10.53817,-45.61232 -0.61233,-67.36221l-20.90488,1.30426c-2.16152,6.30698 -4.01075,11.90978 -5.6824,22.23975l-18.5168,-0.04286c1.45121,-9.61355 4.12097,-14.8612 6.55803,-21.10694l-17.24928,1.08382"/>
  </g>
 </g>
</svg>