<svg width="336.276" height="160.89" xmlns="http://www.w3.org/2000/svg">
 <metadata id="metadata72">image/svg+xml</metadata>

 <g>
  <title>background</title>
  <rect x="-1" y="-1" width="338.276" height="162.89" id="canvas_background" fill="none"/>
 </g>
 <g>
  <title>Layer 1</title>
  <g id="g64">
   <g id="g62" stroke="null">
    <path id="path4" d="m283.01895,57.6703l30.32037,0l18.00327,45.48154l-21.1616,0l-3.89554,-10.844l-16.00247,0l-3.79012,10.94875l-21.47718,0l18.00327,-45.58628l0,-0.00001zm10.31696,23.47797l9.89662,0l-4.94831,-14.73953l-4.94831,14.73953z"/>
    <path id="path6" d="m73.15889,103.75679l68.95034,0l-34.7639,-90.96765l-34.18644,90.96765zm-63.78387,-46.61288l20.31931,0l20.00361,22.95159l-0.21082,-22.95159l20.4244,0l0.09493,42.12679l35.20321,-93.67422l2.10293,-5.59648l2.13567,5.58731l36.49561,95.49891l0,-44.09944c15.59459,0 31.18917,0 46.78506,0c5.42167,-0.22391 9.07431,2.37792 9.05925,8.06671l0,12.16127c0.14339,3.06602 -1.24133,6.06591 -4.19801,6.92031c2.60772,0.39872 4.25366,2.13436 4.19801,5.11723l0,13.89888l-20.8493,0.12439l0,-10.92059c-0.03142,-1.28258 -1.61386,-2.73997 -2.97763,-2.73015l-12.03753,0l0,13.77448l-19.09533,0l0.69203,1.81159l1.17259,3.06733l-3.29189,0l-75.51055,0l-3.26898,0l1.14967,-3.05882l0.57877,-1.54119l-18.54734,0l-20.42439,-23.89895l0.10534,24.00371l-20.21397,0l0.10535,-46.63906l0,-0.00001zm155.27201,11.59757l0,9.49464c4.83374,-0.01244 9.66617,-0.02423 14.49991,-0.03667c5.01902,-2.40934 3.06405,-9.10115 0.14665,-9.49463l-14.64656,0.03666z"/>
    <path id="path8" d="m209.07448,42.13923c0,2.35041 -0.43539,4.18099 -1.30615,5.47928c-0.87666,1.30419 -2.42113,1.95104 -4.63405,1.95104c-1.98051,0 -3.41171,-0.66846 -4.29426,-2.01651c-0.8891,-1.34281 -1.33038,-3.92369 -1.33038,-7.74328c0,-0.44913 0.05369,-1.64333 0.15517,-3.58913c0.10737,-1.93991 0.26254,-3.26047 0.4655,-3.95053c0.20296,-0.69072 0.54276,-1.33169 1.02004,-1.92355c0.47663,-0.59709 1.08551,-1.04099 1.81879,-1.33168c0.73393,-0.29593 1.59815,-0.44389 2.58873,-0.44389c1.39519,0 2.60052,0.38955 3.61401,1.16735c1.01415,0.77256 1.57459,1.79718 1.67607,3.07387l-2.82705,0.94278c-0.23242,-1.9674 -1.0554,-2.9534 -2.46303,-2.9534c-1.08551,0 -1.84301,0.5146 -2.26661,1.53399c-0.4236,1.02462 -0.63834,2.71836 -0.63834,5.07991l0,1.04623c0,1.37031 0.04779,2.67973 0.14338,3.92369c0.08904,1.24919 0.17873,2.15924 0.26254,2.73997c0.07725,0.57549 0.2501,1.03575 0.50674,1.38079c0.25665,0.33979 0.52508,0.56959 0.81119,0.69072c0.28611,0.11457 0.62001,0.17546 1.00171,0.17546c0.72215,0 1.28258,-0.20296 1.68196,-0.61412c0.39413,-0.40527 0.66846,-0.99189 0.81708,-1.75332c0.15516,-0.76732 0.22718,-2.07151 0.22718,-3.91256l-2.72622,0l0,-2.40541l5.696,0l0,3.4523z"/>
    <path id="path10" d="m148.69301,108.27823l-82.07142,0l40.691,-108.27823l41.38042,108.27823z"/>
    <path id="path12" d="m148.69301,108.27823l-82.07142,0l40.691,-108.27823l41.38042,108.27823z"/>
    <path id="path14" d="m224.90476,49.37118l-8.38163,0l0,-20.21358l8.23301,0l0,2.31244l-5.14342,0l0,6.39719l4.76499,0l0,2.30197l-4.76499,0l0,6.96548l5.29204,0l0,2.2365z"/>
    <path id="path16" d="m242.1119,49.37118l-3.17601,0l-3.56622,-9.58106l-0.26712,0l0,9.58106l-3.06733,0l0,-20.40934l4.24777,0c3.45557,0 5.18401,1.73957 5.18401,5.22264c0,1.58047 -0.25599,2.76746 -0.76666,3.57145c-0.51133,0.79809 -1.34478,1.40567 -2.49511,1.81028l3.90667,9.80497zm-7.00935,-11.45681c1.19223,-0.0216 2.0499,-0.27367 2.57957,-0.76012c0.529,-0.48645 0.79089,-1.36704 0.79089,-2.65224c0,-1.22496 -0.2429,-2.10555 -0.72411,-2.62539c-0.48056,-0.52508 -1.30223,-0.78697 -2.46434,-0.78697l-0.18201,0l0,6.82472z"/>
    <path id="path18" d="m263.01488,49.37118l-2.61884,0l-1.05082,-13.05889l-0.06743,0l-2.86699,13.05889l-1.75855,0l-2.72033,-13.05889l-0.07856,0l-1.10712,13.05889l-2.63064,0l2.05711,-20.40934l2.43356,0l2.93377,14.30677l0.06743,0l2.99531,-14.30677l2.43356,0l1.97854,20.40934z"/>
    <path id="path20" d="m280.60438,49.37118l-2.78056,0l-0.78959,-4.03565l-4.50769,0l-0.78958,4.03565l-2.74586,0l4.61113,-20.40934l2.3622,0l4.63995,20.40934zm-3.95315,-6.10257l-1.85939,-9.67992l-0.06874,0l-1.77885,9.67992l3.70698,0z"/>
    <path id="path22" d="m298.8237,49.37118l-2.42571,0l-5.83021,-13.87139l-0.07398,0l0,13.87138l-2.76223,0l0,-20.21357l2.46237,0l5.8492,13.88186l0.06744,0l0,-13.88186l2.71312,0l0,20.21357l0,0.00001z"/>
    <path id="path24" d="m316.38046,28.96184l-4.50508,11.70887l0,8.70047l-3.12756,0l0,-8.56953l-4.39966,-11.83981l3.0909,0l2.87287,9.16007l0.07464,0l2.90365,-9.16007l3.09024,0z"/>
    <path id="path26" d="m16.69404,113.8112c-0.91037,-0.44782 -1.73204,-0.67239 -2.45909,-0.67239c-0.72176,0 -1.34341,0.23963 -1.85978,0.71822c-0.51617,0.47925 -0.77164,1.05474 -0.77164,1.73237c0,0.47336 0.14993,0.98796 0.45515,1.5281c0.30549,0.53948 0.99379,1.40566 2.07073,2.59724c1.0825,1.18699 1.90403,2.22078 2.47592,3.09679c0.56613,0.876 0.85486,1.87967 0.85486,3.01036c0,1.41614 -0.46642,2.56254 -1.39343,3.44313c-0.92707,0.88124 -2.1373,1.31925 -3.636,1.31925c-0.82167,0 -1.83208,-0.22391 -3.02549,-0.67239l0,-2.28167c0.03332,0.01047 0.06658,0.02553 0.09991,0.04583c0.16099,0.10671 0.50517,0.27498 1.02135,0.49889c0.522,0.22456 1.03254,0.33652 1.53215,0.33652c0.8106,0 1.48227,-0.24945 2.00951,-0.74899c0.522,-0.49365 0.7884,-1.13069 0.7884,-1.9098c0,-0.5349 -0.13323,-1.03379 -0.39976,-1.49274c-0.2664,-0.4583 -0.74925,-1.07962 -1.45438,-1.86396l-1.87077,-2.10359c-0.72719,-0.81512 -1.26563,-1.56411 -1.60981,-2.23584c-0.34968,-0.67763 -0.52187,-1.48227 -0.52187,-2.41982c0,-1.38537 0.43859,-2.50558 1.31564,-3.37177c0.88262,-0.86618 2.02071,-1.29894 3.41956,-1.29894c0.97147,0 1.95962,0.22391 2.95884,0.67238l0,2.07282z"/>
    <path id="path28" d="m26.09977,110.87023l4.48058,0c2.91275,0 4.37178,1.83778 4.37178,5.51792c0,1.46655 -0.26143,2.62605 -0.77302,3.46604c-0.51722,0.84065 -1.15963,1.36769 -1.93271,1.58702c-0.76771,0.21933 -1.90567,0.33914 -3.4028,0.36009l0,8.5512l-2.74383,0l0,-19.48227zm2.74383,8.90081c1.15976,0 1.98725,-0.22456 2.48817,-0.6737c0.50079,-0.44913 0.74578,-1.35198 0.74578,-2.70919c0,-1.3677 -0.21782,-2.2915 -0.65327,-2.78253c-0.43565,-0.49038 -1.29574,-0.7359 -2.58068,-0.7359l0,6.90132z"/>
    <path id="path30" d="m50.45806,130.22417l-7.36092,0l0,-19.35394l7.22998,0l0,2.21424l-4.51686,0l0,6.12483l4.18492,0l0,2.20376l-4.18492,0l0,6.6689l4.6478,0l0,2.14221z"/>
    <path id="path32" d="m166.62361,130.28834l-2.40214,0l-0.96439,-12.42513l-0.06155,0l-2.62932,12.42513l-1.61321,0l-2.49511,-12.42513l-0.07201,0l-1.01546,12.42513l-2.41262,0l1.88688,-19.41811l2.23192,0l2.69086,13.61147l0.06155,0l2.74782,-13.61147l2.23192,0l1.81486,19.41811z"/>
    <path id="path34" d="m175.30378,110.87023l4.4599,0c2.89906,0 4.35121,1.82534 4.35121,5.48125c0,1.45739 -0.25992,2.60903 -0.76928,3.44379c-0.51461,0.83476 -1.15426,1.35853 -1.92355,1.57654c-0.76405,0.21737 -1.8967,0.33718 -3.38682,0.35748l0,8.49489l-2.73146,0l0,-19.35394l0,-0.00001zm2.73146,8.84189c1.15425,0 1.97788,-0.2226 2.47612,-0.66912c0.49889,-0.44586 0.74244,-1.34281 0.74244,-2.69152c0,-1.35852 -0.21671,-2.27643 -0.65013,-2.76354c-0.43342,-0.48776 -1.28978,-0.73131 -2.56843,-0.73131l0,6.85549z"/>
    <path id="path36" d="m199.42926,130.28834l-7.01786,0l0,-19.41811l6.89281,0l0,2.22144l-4.30604,0l0,6.14513l3.98916,0l0,2.21161l-3.98916,0l0,6.69116l4.43109,0l0,2.14877z"/>
    <path stroke-width="0" fill="#ffffff" id="path40" d="m92.44147,58l30.32102,0l18.00327,45.08805l-21.1616,0l-3.89554,-10.45051l-16.00247,0l-3.79013,10.55527l-21.47782,0l18.00327,-45.19281zm10.3176,23.47797l9.89663,0l-4.94831,-14.73953l-4.94832,14.73953z" stroke="#465573"/>
    <path id="path42" d="m66.66873,110.87023l-6.13007,17.23792l5.54083,0l0,2.18019l-8.70963,0l6.10453,-17.19667l-5.36012,0l0,-2.22144l8.55446,0z"/>
    <path id="path44" d="m75.26641,110.87023l2.93573,0l0,19.41811l-2.93573,0l0,-19.41811z"/>
    <path id="path46" d="m96.78352,130.41601l-2.57433,0l-0.73066,-3.86477l-4.17313,0l-0.73066,3.86477l-2.54159,0l4.26806,-19.54578l2.1874,0l4.29491,19.54578zm-3.65984,-5.84462l-1.72124,-9.27072l-0.06351,0l-1.6466,9.27072l3.43135,0z"/>
    <path id="path48" d="m112.35322,130.28834l-7.31247,0l0,-19.41811l2.72818,0l0,17.23791l4.58429,0l0,2.1802z"/>
    <path id="path50" d="m128.30724,130.25756l-7.31247,0l0,-19.41744l2.72818,0l0,17.23791l4.58429,0l0,2.17953z"/>
    <path id="path52" d="m145.67151,130.41601l-2.57367,0l-0.73131,-3.86477l-4.17314,0l-0.73065,3.86477l-2.5416,0l4.26807,-19.54578l2.18739,0l4.29491,19.54578zm-3.65918,-5.84462l-1.72124,-9.27072l-0.0635,0l-1.64726,9.27072l3.432,0z"/>
    <path id="path54" d="m280.34511,51.40209l-82.07142,0l40.69166,108.27823l41.37976,-108.27823z"/>
    <path stroke-width="0" fill="#ffffff" id="path56" d="m206,57.73577l21.40641,0l11.93278,36.85636l11.93213,-36.85636l21.17076,0l-17.89851,45.51689l-30.31251,-0.09624l-18.23106,-45.42065z" stroke="#465573"/>
    <path id="path60" d="m217.67674,130.3525l-2.17692,0l-5.23377,-13.36922l-0.06612,0l0,13.36922l-2.4794,0l0,-19.48227l2.20965,0l5.25014,13.3797l0.06089,0l0,-13.3797l2.43553,0l0,19.48227z"/>
   </g>
  </g>
  <path id="svg_2" d="m93.131061,58.556152" opacity="0.5" stroke-width="1.5" stroke="#000" fill="#fff"/>
 </g>
</svg>