<svg xmlns="http://www.w3.org/2000/svg" version="1.1" xmlns:xlink="http://www.w3.org/1999/xlink" xmlns:svgjs="http://svgjs.com/svgjs" height="32.09888536660189" width="292"><defs id="SvgjsDefs1253"></defs><g id="SvgjsG1254" rel="mainfill" name="main_text" xmlns:name="main_text" transform="translate(81.99999999999999,-209.47985419169905)" fill="#ffffff"><path d="M17.65 240L22.79 240L11.37 210.65L0 240L5.14 240L6.36 236.70L16.39 236.70ZM11.37 222.68L14.84 232.58L7.91 232.58ZM36.68 240.41C42.76 240.41 47.40 236.94 47.40 230.87L47.40 211.47L42.64 211.47L42.64 230.87C42.64 234.05 39.66 235.64 36.68 235.64C33.67 235.64 31.02 234.17 30.77 230.87L30.77 211.47L26.01 211.47L26.01 230.87C26.01 236.74 30.82 240.41 36.68 240.41ZM68.15 211.47L51.44 211.47L51.44 215.83L57.43 215.83L57.43 240L62.16 240L62.16 215.83L68.15 215.83ZM85.07 211.10C66.28 211.10 66.24 240.37 85.07 240.37C103.82 240.37 103.78 211.10 85.07 211.10ZM85.07 235.76C72.72 235.76 72.76 215.75 85.07 215.75C97.42 215.75 97.42 235.76 85.07 235.76ZM109.36 235.23L109.36 211.47L104.59 211.47L104.59 240L119.92 240L119.92 235.23L109.36 235.23ZM125.14 240L129.90 240L129.90 211.47L125.14 211.47L125.14 240ZM160.19 211.47L155.46 211.47L155.46 231.77L141.24 211.47L136.43 211.47L136.43 240L141.20 240L141.20 219.70L155.38 240L160.19 240ZM186.56 240L186.56 235.23L171.97 235.23L186.56 211.47L164.67 211.47L164.67 216.24L178.08 216.24L163.45 240ZM204.86 240L210.00 240L198.59 210.65L187.21 240L192.35 240L193.57 236.70L203.60 236.70ZM198.59 222.68L202.05 232.58L195.12 232.58Z" fill="#ffffff" style="fill: rgb(255, 255, 255);"></path></g><g id="SvgjsG1255" rel="mainfill" name="symbol" xmlns:name="symbol_mainfill" transform="translate(-10.349064321505248,-27.799621638204304) scale(0.876981286430105)" fill="#ffffff"><g fill="#ffffff"><path d="M87.6,56.7c-0.4-1.1-0.7-2.4-1-3.7c-1.9-7.1-4.2-16-14.8-18.3c-6.9-1.5-18.8-3-29.6-3c-14.6,0.1-24.7,2.8-30,8   c-0.2,0.2-0.4,0.6-0.4,0.9c0,0.2,0.3,5.5,3.4,11.4c1.8,3.4,4.3,6.4,7.2,8.7c3.7,2.9,8.2,4.8,13.5,5.7c0,0,0,0,0,0   c2.5,1.2,5.4,1.9,8.4,1.9c4.8,0,8.3-1.2,11.5-3.8h27.4c1,0.2,2.8,0.1,4-1.2C88.4,61.9,88.5,59.7,87.6,56.7z M81.8,49.2   c0,5.4-4.4,9.7-9.7,9.7c-5.4,0-9.7-4.4-9.7-9.7c0-5.4,4.4-9.7,9.7-9.7C77.4,39.4,81.8,43.8,81.8,49.2z M17.3,51   c-2.3-4.4-3-8.5-3.1-9.9c4-3.7,10.7-5.5,17.5-6.3c-4.1,3.7-6.5,9.1-6.5,14.5c0,5.2,2.1,9.9,5.4,13.4c-2.5-0.9-4.7-2.1-6.7-3.7   C21.2,56.8,19,54.1,17.3,51z M85.4,61.7c-0.6,0.7-1.9,0.5-1.9,0.5c-0.1,0-0.2,0-0.2,0H55.6c-0.1,0-0.3,0-0.4,0.1   c-0.2,0-0.4,0.1-0.5,0.3c-2.8,2.5-5.9,3.6-10.3,3.6c-2.7,0-5.3-0.6-7.5-1.8c-0.1-0.1-0.2-0.1-0.3-0.2c-5.4-2.8-9-8.5-9-14.9   c0-5.7,3.4-11.6,8.3-14.7c0.1,0,0.1-0.1,0.2-0.1c2.1-0.1,4.2-0.2,6.2-0.2c12.1-0.1,24,1.8,29.1,2.9c0.2,0,0.3,0.1,0.5,0.1   C65.2,37.3,60,42.6,60,49.2c0,6.7,5.4,12.1,12.1,12.1c5.7,0,10.5-4,11.8-9.3c0.1,0.5,0.3,1.1,0.4,1.6c0.4,1.3,0.7,2.6,1.1,3.8   C86.2,60.2,85.8,61.3,85.4,61.7z" fill="#ffffff" style="fill: rgb(255, 255, 255);"></path><path d="M44.3,35.9c-7.3,0-13.3,6-13.3,13.3c0,7.3,6,13.3,13.3,13.3c7.3,0,13.3-6,13.3-13.3C57.6,41.8,51.7,35.9,44.3,35.9z    M44.3,60.1c-6,0-10.9-4.9-10.9-10.9s4.9-10.9,10.9-10.9c6,0,10.9,4.9,10.9,10.9S50.3,60.1,44.3,60.1z" fill="#ffffff" style="fill: rgb(255, 255, 255);"></path><path d="M44.3,40.7c-4.6,0-8.4,3.8-8.4,8.4c0,4.6,3.8,8.4,8.4,8.4c4.6,0,8.4-3.8,8.4-8.4C52.8,44.5,49,40.7,44.3,40.7z M44.3,55.2   c-3.3,0-6.1-2.7-6.1-6.1c0-3.3,2.7-6.1,6.1-6.1c3.3,0,6.1,2.7,6.1,6.1C50.4,52.5,47.7,55.2,44.3,55.2z" fill="#ffffff" style="fill: rgb(255, 255, 255);"></path><circle cx="72.1" cy="49.2" r="3.2"></circle></g></g></svg>